<svg width="1287" height="1287" viewBox="0 0 1287 1287" fill="none" xmlns="http://www.w3.org/2000/svg">
<g filter="url(#filter0_d_5_1)">
<g clip-path="url(#clip0_5_1)">
<rect x="50" y="747.517" width="473.53" height="473.53" fill="#EC4B19"/>
<rect x="105.963" y="803.48" width="361.605" height="361.605" rx="3.1738" fill="white"/>
<ellipse cx="202.821" cy="902.491" rx="40.4653" ry="40.4653" fill="#CA4E08" fill-opacity="0.25"/>
<circle cx="370.279" cy="902.491" r="40.4653" fill="#CA4E08" fill-opacity="0.25"/>
<ellipse cx="370.279" cy="1066.07" rx="40.4653" ry="40.4653" fill="#CA4E08" fill-opacity="0.25"/>
<ellipse cx="202.821" cy="1066.07" rx="40.4653" ry="40.4653" fill="#CA4E08" fill-opacity="0.25"/>
<rect x="761.565" y="747.517" width="474.483" height="474.483" fill="#188FD1"/>
<rect x="817.64" y="803.593" width="362.332" height="362.332" rx="3.1738" fill="white"/>
<ellipse cx="914.694" cy="902.802" rx="40.5467" ry="40.5467" fill="#188FD1" fill-opacity="0.25"/>
<ellipse cx="1082.49" cy="902.802" rx="40.5467" ry="40.5467" fill="#188FD1" fill-opacity="0.25"/>
<ellipse cx="1082.49" cy="1066.71" rx="40.5467" ry="40.5467" fill="#188FD1" fill-opacity="0.25"/>
<circle cx="914.694" cy="1066.71" r="40.5467" fill="#188FD1" fill-opacity="0.25"/>
<rect x="761.565" y="35.3174" width="475.117" height="475.117" fill="#EBC918"/>
<rect x="817.715" y="91.4676" width="362.817" height="362.817" rx="3.1738" fill="white"/>
<ellipse cx="914.899" cy="190.81" rx="40.6009" ry="40.6009" fill="#EBD61A" fill-opacity="0.25"/>
<ellipse cx="1082.92" cy="190.81" rx="40.6009" ry="40.6009" fill="#EBD61A" fill-opacity="0.25"/>
<ellipse cx="1082.92" cy="354.942" rx="40.6009" ry="40.6009" fill="#EBD61A" fill-opacity="0.25"/>
<ellipse cx="914.899" cy="354.942" rx="40.6009" ry="40.6009" fill="#EBD61A" fill-opacity="0.25"/>
<rect x="50.3174" y="35.9521" width="473.53" height="473.53" fill="#08CA3F"/>
<rect x="106.28" y="91.9148" width="361.605" height="361.605" rx="3.1738" fill="white"/>
<ellipse cx="203.139" cy="190.926" rx="40.4653" ry="40.4653" fill="#08CA3F" fill-opacity="0.25"/>
<circle cx="370.596" cy="190.926" r="40.4653" fill="#08CA3F" fill-opacity="0.25"/>
<ellipse cx="370.596" cy="354.509" rx="40.4653" ry="40.4653" fill="#08CA3F" fill-opacity="0.25"/>
<ellipse cx="203.139" cy="354.509" rx="40.4653" ry="40.4653" fill="#08CA3F" fill-opacity="0.25"/>
<rect x="524.324" y="508.689" width="77.758" height="77.758" transform="rotate(-90 524.324 508.689)" fill="white" stroke="#818486" stroke-width="1.5869"/>
<rect x="524.324" y="429.344" width="77.758" height="77.758" transform="rotate(-90 524.324 429.344)" fill="white" stroke="#818486" stroke-width="1.5869"/>
<rect x="524.324" y="350.317" width="77.758" height="77.758" transform="rotate(-90 524.324 350.317)" fill="white" stroke="#818486" stroke-width="1.5869"/>
<rect x="524.324" y="271.606" width="77.758" height="77.758" transform="rotate(-90 524.324 271.606)" fill="white" stroke="#818486" stroke-width="1.5869"/>
<rect x="603.646" y="508.689" width="77.758" height="77.758" transform="rotate(-90 603.646 508.689)" fill="#EBC918" stroke="#818486" stroke-width="1.5869"/>
<rect x="603.646" y="429.344" width="77.758" height="77.758" transform="rotate(-90 603.646 429.344)" fill="#EBC918" stroke="#818486" stroke-width="1.5869"/>
<rect x="603.646" y="350.317" width="77.758" height="77.758" transform="rotate(-90 603.646 350.317)" fill="#EBC918" stroke="#818486" stroke-width="1.5869"/>
<rect x="603.646" y="271.606" width="77.758" height="77.758" transform="rotate(-90 603.646 271.606)" fill="#EBC918" stroke="#818486" stroke-width="1.5869"/>
<rect x="682.991" y="508.689" width="77.758" height="77.758" transform="rotate(-90 682.991 508.689)" fill="white" stroke="#818486" stroke-width="1.5869"/>
<rect x="682.991" y="429.344" width="77.758" height="77.758" transform="rotate(-90 682.991 429.344)" fill="white" stroke="#818486" stroke-width="1.5869"/>
<rect x="682.991" y="350.317" width="77.758" height="77.758" transform="rotate(-90 682.991 350.317)" fill="white" stroke="#818486" stroke-width="1.5869"/>
<rect x="682.991" y="271.606" width="77.758" height="77.758" transform="rotate(-90 682.991 271.606)" fill="white" stroke="#818486" stroke-width="1.5869"/>
<rect x="524.324" y="192.579" width="77.758" height="77.758" transform="rotate(-90 524.324 192.579)" fill="white" stroke="#818486" stroke-width="1.5869"/>
<rect x="524.324" y="113.551" width="77.758" height="77.758" transform="rotate(-90 524.324 113.551)" fill="white" stroke="#818486" stroke-width="1.5869"/>
<rect x="603.646" y="192.579" width="77.758" height="77.758" transform="rotate(-90 603.646 192.579)" fill="#EBC918" stroke="#818486" stroke-width="1.5869"/>
<rect x="603.646" y="113.551" width="77.758" height="77.758" transform="rotate(-90 603.646 113.551)" fill="white" stroke="#818486" stroke-width="1.5869"/>
<rect x="682.991" y="192.579" width="77.758" height="77.758" transform="rotate(-90 682.991 192.579)" fill="#EBC918" stroke="#818486" stroke-width="1.5869"/>
<rect x="682.991" y="113.551" width="77.758" height="77.758" transform="rotate(-90 682.991 113.551)" fill="white" stroke="#818486" stroke-width="1.5869"/>
<g clip-path="url(#clip1_5_1)">
<path d="M538.87 153.724C538.87 167.156 549.771 178.032 563.203 178.032C576.634 178.032 587.535 167.156 587.535 153.724C587.535 140.269 576.634 129.368 563.203 129.368C549.771 129.368 538.87 140.269 538.87 153.724ZM577.802 143.407L571.597 153.7L577.802 163.993L566.098 161.267L558.239 170.343L557.217 158.372L546.17 153.7L557.193 149.028L558.215 137.057L566.074 146.133L577.802 143.407Z" fill="#C4C4C4"/>
</g>
<g clip-path="url(#clip2_5_1)">
<path d="M697.56 153.724C697.56 167.156 708.461 178.032 721.893 178.032C735.324 178.032 746.225 167.156 746.225 153.724C746.225 140.268 735.324 129.368 721.893 129.368C708.461 129.368 697.56 140.268 697.56 153.724ZM736.492 143.407L730.287 153.7L736.492 163.993L724.788 161.267L716.929 170.343L715.907 158.372L704.86 153.7L715.883 149.028L716.905 137.057L724.764 146.133L736.492 143.407Z" fill="white"/>
</g>
<rect x="762.676" y="510.276" width="77.758" height="77.758" fill="white" stroke="#818486" stroke-width="1.5869"/>
<rect x="842.021" y="510.276" width="77.758" height="77.758" fill="white" stroke="#818486" stroke-width="1.5869"/>
<rect x="921.048" y="510.276" width="77.758" height="77.758" fill="white" stroke="#818486" stroke-width="1.5869"/>
<rect x="999.759" y="510.276" width="77.758" height="77.758" fill="white" stroke="#818486" stroke-width="1.5869"/>
<rect x="762.676" y="589.598" width="77.758" height="77.758" fill="#188FD1" stroke="#818486" stroke-width="1.5869"/>
<rect x="842.021" y="589.598" width="77.758" height="77.758" fill="#188FD1" stroke="#818486" stroke-width="1.5869"/>
<rect x="921.048" y="589.598" width="77.758" height="77.758" fill="#188FD1" stroke="#818486" stroke-width="1.5869"/>
<rect x="999.759" y="589.598" width="77.758" height="77.758" fill="#188FD1" stroke="#818486" stroke-width="1.5869"/>
<rect x="762.676" y="668.943" width="77.758" height="77.758" fill="white" stroke="#818486" stroke-width="1.5869"/>
<rect x="842.021" y="668.943" width="77.758" height="77.758" fill="white" stroke="#818486" stroke-width="1.5869"/>
<rect x="921.048" y="668.943" width="77.758" height="77.758" fill="white" stroke="#818486" stroke-width="1.5869"/>
<rect x="999.759" y="668.943" width="77.758" height="77.758" fill="white" stroke="#818486" stroke-width="1.5869"/>
<rect x="1078.79" y="510.276" width="77.758" height="77.758" fill="white" stroke="#818486" stroke-width="1.5869"/>
<rect x="1157.81" y="510.276" width="77.758" height="77.758" fill="white" stroke="#818486" stroke-width="1.5869"/>
<rect x="1078.79" y="589.598" width="77.758" height="77.758" fill="#188FD1" stroke="#818486" stroke-width="1.5869"/>
<rect x="1157.81" y="589.598" width="77.758" height="77.758" fill="white" stroke="#818486" stroke-width="1.5869"/>
<rect x="1078.79" y="668.943" width="77.758" height="77.758" fill="#188FD1" stroke="#818486" stroke-width="1.5869"/>
<rect x="1157.81" y="668.943" width="77.758" height="77.758" fill="white" stroke="#818486" stroke-width="1.5869"/>
<g clip-path="url(#clip3_5_1)">
<path d="M1117.64 524.823C1104.21 524.823 1093.33 535.724 1093.33 549.155C1093.33 562.587 1104.21 573.488 1117.64 573.488C1131.1 573.488 1142 562.587 1142 549.155C1142 535.724 1131.1 524.823 1117.64 524.823ZM1127.96 563.755L1117.67 557.55L1107.37 563.755L1110.1 552.051L1101.02 544.191L1112.99 543.169L1117.67 532.122L1122.34 543.145L1134.31 544.167L1125.23 552.026L1127.96 563.755Z" fill="#C4C4C4"/>
</g>
<g clip-path="url(#clip4_5_1)">
<path d="M1117.64 683.512C1104.21 683.512 1093.33 694.413 1093.33 707.845C1093.33 721.276 1104.21 732.177 1117.64 732.177C1131.1 732.177 1142 721.276 1142 707.845C1142 694.413 1131.1 683.512 1117.64 683.512ZM1127.96 722.444L1117.67 716.24L1107.37 722.444L1110.1 710.74L1101.02 702.881L1112.99 701.859L1117.67 690.812L1122.34 701.835L1134.31 702.857L1125.23 710.716L1127.96 722.444Z" fill="white"/>
</g>
<rect x="760.749" y="748.311" width="77.758" height="77.758" transform="rotate(90 760.749 748.311)" fill="white" stroke="#818486" stroke-width="1.5869"/>
<rect x="760.749" y="827.656" width="77.758" height="77.758" transform="rotate(90 760.749 827.656)" fill="white" stroke="#818486" stroke-width="1.5869"/>
<rect x="760.749" y="906.683" width="77.758" height="77.758" transform="rotate(90 760.749 906.683)" fill="white" stroke="#818486" stroke-width="1.5869"/>
<rect x="760.749" y="985.393" width="77.758" height="77.758" transform="rotate(90 760.749 985.393)" fill="white" stroke="#818486" stroke-width="1.5869"/>
<rect x="681.427" y="748.311" width="77.758" height="77.758" transform="rotate(90 681.427 748.311)" fill="#EC4B19" stroke="#818486" stroke-width="1.5869"/>
<rect x="681.427" y="827.656" width="77.758" height="77.758" transform="rotate(90 681.427 827.656)" fill="#EC4B19" stroke="#818486" stroke-width="1.5869"/>
<rect x="681.427" y="906.683" width="77.758" height="77.758" transform="rotate(90 681.427 906.683)" fill="#EC4B19" stroke="#818486" stroke-width="1.5869"/>
<rect x="681.427" y="985.393" width="77.758" height="77.758" transform="rotate(90 681.427 985.393)" fill="#EC4B19" stroke="#818486" stroke-width="1.5869"/>
<rect x="602.082" y="748.311" width="77.758" height="77.758" transform="rotate(90 602.082 748.311)" fill="white" stroke="#818486" stroke-width="1.5869"/>
<rect x="602.082" y="827.656" width="77.758" height="77.758" transform="rotate(90 602.082 827.656)" fill="white" stroke="#818486" stroke-width="1.5869"/>
<rect x="602.082" y="906.683" width="77.758" height="77.758" transform="rotate(90 602.082 906.683)" fill="white" stroke="#818486" stroke-width="1.5869"/>
<rect x="602.082" y="985.393" width="77.758" height="77.758" transform="rotate(90 602.082 985.393)" fill="white" stroke="#818486" stroke-width="1.5869"/>
<rect x="760.749" y="1064.42" width="77.758" height="77.758" transform="rotate(90 760.749 1064.42)" fill="white" stroke="#818486" stroke-width="1.5869"/>
<rect x="760.749" y="1143.45" width="77.758" height="77.758" transform="rotate(90 760.749 1143.45)" fill="white" stroke="#818486" stroke-width="1.5869"/>
<rect x="681.427" y="1064.42" width="77.758" height="77.758" transform="rotate(90 681.427 1064.42)" fill="#EC4B19" stroke="#818486" stroke-width="1.5869"/>
<rect x="681.427" y="1143.45" width="77.758" height="77.758" transform="rotate(90 681.427 1143.45)" fill="white" stroke="#818486" stroke-width="1.5869"/>
<rect x="602.082" y="1064.42" width="77.758" height="77.758" transform="rotate(90 602.082 1064.42)" fill="#EC4B19" stroke="#818486" stroke-width="1.5869"/>
<rect x="602.082" y="1143.45" width="77.758" height="77.758" transform="rotate(90 602.082 1143.45)" fill="white" stroke="#818486" stroke-width="1.5869"/>
<path d="M746.203 1103.28C746.203 1089.84 735.302 1078.97 721.87 1078.97C708.439 1078.97 697.538 1089.84 697.538 1103.28C697.538 1116.73 708.439 1127.63 721.87 1127.63C735.302 1127.63 746.203 1116.73 746.203 1103.28ZM707.271 1113.59L713.476 1103.3L707.271 1093.01L718.975 1095.73L726.834 1086.66L727.856 1098.63L738.903 1103.3L727.88 1107.97L726.858 1119.94L718.999 1110.87L707.271 1113.59Z" fill="#C4C4C4"/>
<path d="M587.513 1103.28C587.513 1089.84 576.612 1078.97 563.18 1078.97C549.749 1078.97 538.848 1089.84 538.848 1103.28C538.848 1116.73 549.749 1127.63 563.18 1127.63C576.612 1127.63 587.513 1116.73 587.513 1103.28ZM548.581 1113.59L554.786 1103.3L548.581 1093.01L560.285 1095.73L568.144 1086.66L569.166 1098.63L580.213 1103.3L569.19 1107.97L568.168 1119.94L560.309 1110.87L548.581 1113.59Z" fill="white"/>
<rect x="523.689" y="746.701" width="77.758" height="77.758" transform="rotate(180 523.689 746.701)" fill="white" stroke="#818486" stroke-width="1.5869"/>
<rect x="444.344" y="746.701" width="77.758" height="77.758" transform="rotate(180 444.344 746.701)" fill="white" stroke="#818486" stroke-width="1.5869"/>
<rect x="365.317" y="746.701" width="77.758" height="77.758" transform="rotate(180 365.317 746.701)" fill="white" stroke="#818486" stroke-width="1.5869"/>
<rect x="286.607" y="746.701" width="77.758" height="77.758" transform="rotate(180 286.607 746.701)" fill="white" stroke="#818486" stroke-width="1.5869"/>
<rect x="523.689" y="667.379" width="77.758" height="77.758" transform="rotate(180 523.689 667.379)" fill="#08CA3F" stroke="#818486" stroke-width="1.5869"/>
<rect x="444.344" y="667.379" width="77.758" height="77.758" transform="rotate(180 444.344 667.379)" fill="#08CA3F" stroke="#818486" stroke-width="1.5869"/>
<rect x="365.317" y="667.379" width="77.758" height="77.758" transform="rotate(180 365.317 667.379)" fill="#08CA3F" stroke="#818486" stroke-width="1.5869"/>
<rect x="286.607" y="667.379" width="77.758" height="77.758" transform="rotate(180 286.607 667.379)" fill="#08CA3F" stroke="#818486" stroke-width="1.5869"/>
<rect x="523.689" y="588.034" width="77.758" height="77.758" transform="rotate(180 523.689 588.034)" fill="white" stroke="#818486" stroke-width="1.5869"/>
<rect x="444.344" y="588.034" width="77.758" height="77.758" transform="rotate(180 444.344 588.034)" fill="white" stroke="#818486" stroke-width="1.5869"/>
<rect x="365.317" y="588.034" width="77.758" height="77.758" transform="rotate(180 365.317 588.034)" fill="white" stroke="#818486" stroke-width="1.5869"/>
<rect x="286.607" y="588.034" width="77.758" height="77.758" transform="rotate(180 286.607 588.034)" fill="white" stroke="#818486" stroke-width="1.5869"/>
<rect x="207.579" y="746.701" width="77.758" height="77.758" transform="rotate(180 207.579 746.701)" fill="white" stroke="#818486" stroke-width="1.5869"/>
<rect x="128.552" y="746.701" width="77.758" height="77.758" transform="rotate(180 128.552 746.701)" fill="white" stroke="#818486" stroke-width="1.5869"/>
<rect x="207.579" y="667.379" width="77.758" height="77.758" transform="rotate(180 207.579 667.379)" fill="#08CA3F" stroke="#818486" stroke-width="1.5869"/>
<rect x="128.552" y="667.379" width="77.758" height="77.758" transform="rotate(180 128.552 667.379)" fill="white" stroke="#818486" stroke-width="1.5869"/>
<rect x="207.579" y="588.034" width="77.758" height="77.758" transform="rotate(180 207.579 588.034)" fill="#08CA3F" stroke="#818486" stroke-width="1.5869"/>
<rect x="128.552" y="588.034" width="77.758" height="77.758" transform="rotate(180 128.552 588.034)" fill="white" stroke="#818486" stroke-width="1.5869"/>
<g clip-path="url(#clip5_5_1)">
<path d="M168.724 732.155C182.156 732.155 193.032 721.254 193.032 707.822C193.032 694.391 182.156 683.49 168.724 683.49C155.269 683.49 144.368 694.391 144.368 707.822C144.368 721.254 155.269 732.155 168.724 732.155ZM158.407 693.223L168.7 699.427L178.993 693.223L176.267 704.927L185.343 712.786L173.372 713.808L168.7 724.855L164.028 713.832L152.057 712.81L161.133 704.951L158.407 693.223Z" fill="#C4C4C4"/>
</g>
<g clip-path="url(#clip6_5_1)">
<path d="M168.724 573.465C182.156 573.465 193.032 562.564 193.032 549.132C193.032 535.701 182.156 524.8 168.724 524.8C155.269 524.8 144.368 535.701 144.368 549.132C144.368 562.564 155.269 573.465 168.724 573.465ZM158.407 534.533L168.7 540.738L178.993 534.533L176.267 546.237L185.343 554.096L173.372 555.118L168.7 566.165L164.028 555.142L152.057 554.12L161.133 546.261L158.407 534.533Z" fill="white"/>
</g>
<rect x="1.5869" y="-1.5869" width="238.683" height="238.683" transform="matrix(-1 0 0 1 764.111 510.747)" fill="#919395" stroke="#818486" stroke-width="3.1738"/>
<path d="M642.869 628.345L524.8 510.276V747.041L642.869 628.345Z" fill="#08CA3F"/>
<path d="M642.869 628.345L760.937 510.276V747.041L642.869 628.345Z" fill="#188FD1"/>
<path d="M642.869 628.345L524.8 510.276L761.565 510.276L642.869 628.345Z" fill="#EBC918"/>
<path d="M642.869 628.345L524.8 746.413L761.565 746.413L642.869 628.345Z" fill="#EC4B19"/>
<path fill-rule="evenodd" clip-rule="evenodd" d="M248.307 535.849C248.491 535.664 248.71 535.518 248.951 535.418C249.192 535.318 249.45 535.266 249.711 535.266C249.972 535.266 250.231 535.318 250.472 535.418C250.713 535.518 250.931 535.664 251.116 535.849L263.017 547.751C263.202 547.935 263.349 548.154 263.449 548.395C263.549 548.636 263.6 548.894 263.6 549.155C263.6 549.416 263.549 549.674 263.449 549.915C263.349 550.156 263.202 550.375 263.017 550.559L251.116 562.461C250.743 562.834 250.238 563.043 249.711 563.043C249.185 563.043 248.679 562.834 248.307 562.461C247.934 562.089 247.725 561.583 247.725 561.057C247.725 560.53 247.934 560.025 248.307 559.652L258.808 549.155L248.307 538.658C248.122 538.473 247.976 538.254 247.876 538.013C247.776 537.772 247.724 537.514 247.724 537.253C247.724 536.992 247.776 536.734 247.876 536.493C247.976 536.252 248.122 536.033 248.307 535.849Z" fill="#08CA3F" fill-opacity="0.25"/>
<path fill-rule="evenodd" clip-rule="evenodd" d="M231.859 549.155C231.859 548.629 232.068 548.124 232.44 547.752C232.812 547.38 233.316 547.171 233.842 547.171H259.629C260.155 547.171 260.66 547.38 261.032 547.752C261.404 548.124 261.613 548.629 261.613 549.155C261.613 549.681 261.404 550.186 261.032 550.558C260.66 550.93 260.155 551.139 259.629 551.139H233.842C233.316 551.139 232.812 550.93 232.44 550.558C232.068 550.186 231.859 549.681 231.859 549.155Z" fill="#08CA3F" fill-opacity="0.25"/>
<path fill-rule="evenodd" clip-rule="evenodd" d="M735.199 233.307C735.384 233.491 735.53 233.71 735.63 233.951C735.73 234.192 735.782 234.45 735.782 234.711C735.782 234.972 735.73 235.231 735.63 235.472C735.53 235.713 735.384 235.931 735.199 236.116L723.297 248.017C723.113 248.202 722.894 248.349 722.653 248.449C722.412 248.549 722.154 248.6 721.893 248.6C721.632 248.6 721.374 248.549 721.133 248.449C720.892 248.349 720.673 248.202 720.488 248.017L708.587 236.116C708.214 235.743 708.005 235.238 708.005 234.711C708.005 234.185 708.214 233.679 708.587 233.307C708.959 232.934 709.464 232.725 709.991 232.725C710.518 232.725 711.023 232.934 711.396 233.307L721.893 243.808L732.39 233.307C732.574 233.122 732.793 232.976 733.034 232.876C733.275 232.776 733.534 232.724 733.795 232.724C734.055 232.724 734.314 232.776 734.555 232.876C734.796 232.976 735.015 233.122 735.199 233.307Z" fill="#EBD61A" fill-opacity="0.25"/>
<path fill-rule="evenodd" clip-rule="evenodd" d="M721.893 216.859C722.419 216.859 722.923 217.068 723.295 217.44C723.667 217.812 723.876 218.316 723.876 218.842L723.876 244.629C723.876 245.155 723.667 245.66 723.295 246.032C722.923 246.404 722.419 246.613 721.893 246.613C721.367 246.613 720.862 246.404 720.49 246.032C720.118 245.66 719.909 245.155 719.909 244.629L719.909 218.842C719.909 218.316 720.118 217.812 720.49 217.44C720.862 217.068 721.367 216.859 721.893 216.859Z" fill="#EBD61A" fill-opacity="0.25"/>
<path fill-rule="evenodd" clip-rule="evenodd" d="M1038.06 719.247C1037.87 719.432 1037.66 719.578 1037.41 719.678C1037.17 719.778 1036.91 719.83 1036.65 719.83C1036.39 719.83 1036.13 719.778 1035.89 719.678C1035.65 719.578 1035.43 719.432 1035.25 719.247L1023.35 707.345C1023.16 707.161 1023.02 706.942 1022.92 706.701C1022.82 706.46 1022.77 706.202 1022.77 705.941C1022.77 705.68 1022.82 705.421 1022.92 705.18C1023.02 704.939 1023.16 704.721 1023.35 704.536L1035.25 692.635C1035.62 692.262 1036.13 692.053 1036.65 692.053C1037.18 692.053 1037.69 692.262 1038.06 692.635C1038.43 693.007 1038.64 693.512 1038.64 694.039C1038.64 694.566 1038.43 695.071 1038.06 695.443L1027.56 705.941L1038.06 716.438C1038.24 716.622 1038.39 716.841 1038.49 717.082C1038.59 717.323 1038.64 717.582 1038.64 717.842C1038.64 718.103 1038.59 718.362 1038.49 718.603C1038.39 718.844 1038.24 719.063 1038.06 719.247Z" fill="#188FD1" fill-opacity="0.25"/>
<path fill-rule="evenodd" clip-rule="evenodd" d="M1054.51 705.941C1054.51 706.467 1054.3 706.971 1053.93 707.343C1053.55 707.715 1053.05 707.924 1052.52 707.924L1026.74 707.924C1026.21 707.924 1025.71 707.715 1025.33 707.343C1024.96 706.971 1024.75 706.467 1024.75 705.941C1024.75 705.415 1024.96 704.91 1025.33 704.538C1025.71 704.166 1026.21 703.957 1026.74 703.957L1052.52 703.957C1053.05 703.957 1053.55 704.166 1053.93 704.538C1054.3 704.91 1054.51 705.415 1054.51 705.941Z" fill="#188FD1" fill-opacity="0.25"/>
<path fill-rule="evenodd" clip-rule="evenodd" d="M549.897 1023.69C549.712 1023.51 549.565 1023.29 549.465 1023.05C549.365 1022.81 549.314 1022.55 549.314 1022.29C549.314 1022.03 549.365 1021.77 549.465 1021.53C549.565 1021.29 549.712 1021.07 549.897 1020.88L561.798 1008.98C561.983 1008.8 562.202 1008.65 562.443 1008.55C562.684 1008.45 562.942 1008.4 563.203 1008.4C563.464 1008.4 563.722 1008.45 563.963 1008.55C564.204 1008.65 564.423 1008.8 564.607 1008.98L576.509 1020.88C576.881 1021.26 577.091 1021.76 577.091 1022.29C577.091 1022.82 576.881 1023.32 576.509 1023.69C576.137 1024.07 575.631 1024.27 575.105 1024.27C574.578 1024.27 574.073 1024.07 573.7 1023.69L563.203 1013.19L552.706 1023.69C552.521 1023.88 552.302 1024.02 552.061 1024.12C551.82 1024.22 551.562 1024.28 551.301 1024.28C551.04 1024.28 550.782 1024.22 550.541 1024.12C550.3 1024.02 550.081 1023.88 549.897 1023.69Z" fill="#CA4E08" fill-opacity="0.25"/>
<path fill-rule="evenodd" clip-rule="evenodd" d="M563.203 1040.14C562.677 1040.14 562.172 1039.93 561.8 1039.56C561.428 1039.19 561.219 1038.68 561.219 1038.16L561.219 1012.37C561.219 1011.84 561.428 1011.34 561.8 1010.97C562.172 1010.6 562.677 1010.39 563.203 1010.39C563.729 1010.39 564.233 1010.6 564.605 1010.97C564.977 1011.34 565.186 1011.84 565.186 1012.37L565.186 1038.16C565.186 1038.68 564.977 1039.19 564.605 1039.56C564.233 1039.93 563.729 1040.14 563.203 1040.14Z" fill="#CA4E08" fill-opacity="0.25"/>
<g clip-path="url(#clip7_5_1)">
<path d="M105.859 622.523L100.569 617.233V621.2H88.6674V623.845H100.569V627.812L105.859 622.523ZM97.9243 626.49V633.102H76.7657V621.2H74.1208L87.345 607.976L97.9243 618.555H93.9571L87.345 611.943L79.4105 619.878V630.457H95.2795V626.49H97.9243Z" fill="#08CA3F" fill-opacity="0.25"/>
</g>
<g clip-path="url(#clip8_5_1)">
<path d="M642.601 1166.46L637.311 1171.75L641.278 1171.75L641.278 1183.65L643.923 1183.65L643.923 1171.75L647.89 1171.75L642.601 1166.46ZM646.568 1174.39L653.18 1174.39L653.18 1195.55L641.278 1195.55L641.278 1198.2L628.054 1184.97L638.634 1174.39L638.634 1178.36L632.021 1184.97L639.956 1192.91L650.535 1192.91L650.535 1177.04L646.568 1177.04L646.568 1174.39Z" fill="#CA4E08" fill-opacity="0.25"/>
</g>
<g clip-path="url(#clip9_5_1)">
<path d="M1180.82 631.938L1186.11 637.228L1186.11 633.261L1198.02 633.261L1198.02 630.616L1186.11 630.616L1186.11 626.649L1180.82 631.938ZM1188.76 627.971L1188.76 621.359L1209.92 621.359L1209.92 633.261L1212.56 633.261L1199.34 646.485L1188.76 635.905L1192.73 635.905L1199.34 642.518L1207.27 634.583L1207.27 624.004L1191.4 624.004L1191.4 627.971L1188.76 627.971Z" fill="#188FD1" fill-opacity="0.25"/>
</g>
<g clip-path="url(#clip10_5_1)">
<path d="M641.225 90.5414L646.515 85.2518L642.548 85.2518L642.548 73.35L639.903 73.35L639.903 85.2518L635.936 85.2518L641.225 90.5414ZM637.258 82.6069L630.646 82.6069L630.646 61.4483L642.548 61.4483L642.548 58.8035L655.772 72.0276L645.193 82.6069L645.193 78.6397L651.805 72.0276L643.87 64.0931L633.291 64.0931L633.291 79.9621L637.258 79.9621L637.258 82.6069Z" fill="#EBD61A" fill-opacity="0.25"/>
</g>
</g>
</g>
<defs>
<filter id="filter0_d_5_1" x="-3.8147e-06" y="-3.8147e-06" width="1287" height="1287" filterUnits="userSpaceOnUse" color-interpolation-filters="sRGB">
<feFlood flood-opacity="0" result="BackgroundImageFix"/>
<feColorMatrix in="SourceAlpha" type="matrix" values="0 0 0 0 0 0 0 0 0 0 0 0 0 0 0 0 0 0 127 0" result="hardAlpha"/>
<feOffset dy="15"/>
<feGaussianBlur stdDeviation="25"/>
<feColorMatrix type="matrix" values="0 0 0 0 0 0 0 0 0 0 0 0 0 0 0 0 0 0 0.25 0"/>
<feBlend mode="normal" in2="BackgroundImageFix" result="effect1_dropShadow_5_1"/>
<feBlend mode="normal" in="SourceGraphic" in2="effect1_dropShadow_5_1" result="shape"/>
</filter>
<clipPath id="clip0_5_1">
<rect x="50" y="35" width="1187" height="1187" rx="30" fill="white"/>
</clipPath>
<clipPath id="clip1_5_1">
<rect width="58.3979" height="58.3979" fill="white" transform="translate(534.004 182.899) rotate(-90)"/>
</clipPath>
<clipPath id="clip2_5_1">
<rect width="58.3979" height="58.3979" fill="white" transform="translate(692.694 182.899) rotate(-90)"/>
</clipPath>
<clipPath id="clip3_5_1">
<rect width="58.3979" height="58.3979" fill="white" transform="translate(1088.47 519.956)"/>
</clipPath>
<clipPath id="clip4_5_1">
<rect width="58.3979" height="58.3979" fill="white" transform="translate(1088.47 678.646)"/>
</clipPath>
<clipPath id="clip5_5_1">
<rect width="58.3979" height="58.3979" fill="white" transform="matrix(-1 0 0 -1 197.899 737.021)"/>
</clipPath>
<clipPath id="clip6_5_1">
<rect width="58.3979" height="58.3979" fill="white" transform="matrix(-1 0 0 -1 197.899 578.331)"/>
</clipPath>
<clipPath id="clip7_5_1">
<rect width="31.738" height="31.738" fill="white" transform="translate(74.1208 605.331)"/>
</clipPath>
<clipPath id="clip8_5_1">
<rect width="31.738" height="31.738" fill="white" transform="translate(625.409 1198.2) rotate(-90)"/>
</clipPath>
<clipPath id="clip9_5_1">
<rect width="31.738" height="31.738" fill="white" transform="translate(1212.56 649.13) rotate(180)"/>
</clipPath>
<clipPath id="clip10_5_1">
<rect width="31.738" height="31.738" fill="white" transform="translate(658.417 58.8035) rotate(90)"/>
</clipPath>
</defs>
</svg>
